<svg xmlns="http://www.w3.org/2000/svg" viewBox="0 0 1280 720" data-pptx-page-role="section" font-family="Aptos, Arial, sans-serif">
  <rect id="background" data-pptx-role="background" x="0" y="0" width="1280" height="720" fill="#101B35" />
  <path id="engineering-grid" data-pptx-role="decoration" d="M160 0V720 M320 0V720 M480 0V720 M640 0V720 M800 0V720 M960 0V720 M1120 0V720 M0 120H1280 M0 240H1280 M0 360H1280 M0 480H1280 M0 600H1280" fill="none" stroke="#3448A8" stroke-width="1" stroke-opacity="0.34" />

  <g id="section-header" data-pptx-bounds="64 48 1152 118">
    <text x="64" y="78" font-family="Cascadia Mono, Consolas, monospace" font-size="18" fill="#00C2D7" letter-spacing="1">SECTION 04 / MARKET POSITION</text>
    <text x="1216" y="78" text-anchor="end" font-family="Cascadia Mono, Consolas, monospace" font-size="18" fill="#A9B7D5">BUYER · JOB · LAYER</text>
    <text x="64" y="140" font-size="42" font-weight="700" fill="#F7FAFC">
      04 · Market: Agent is not one market
    </text>
  </g>

  <g id="market-staircase" data-pptx-bounds="110 192 1060 390">
    <rect x="110" y="410" width="300" height="150" rx="10" fill="#172746" stroke="#3448A8" stroke-width="2" />

  <g transform="translate(136, 436) scale(1.66667)" fill="none" stroke="#00C2D7" stroke-width="2">
    <path d="M7 8l-4 4l4 4" />
    <path d="M17 8l4 4l-4 4" />
    <path d="M14 4l-4 16" />
  </g>
    <text x="196" y="464" font-size="24" font-weight="700" fill="#F7FAFC">Runtime / framework</text>
    <text x="136" y="512" font-size="18" fill="#A9B7D5">BUYER</text>
    <text x="220" y="512" font-size="24" font-weight="700" fill="#B9F4F7">Builder</text>

    <line x1="410" y1="454" x2="490" y2="366" stroke="#00C2D7" stroke-width="4" />
    <polygon points="490,366 474,370 484,382" fill="#00C2D7" />

    <rect x="490" y="320" width="300" height="180" rx="10" fill="#26385E" stroke="#00C2D7" stroke-width="3" />

  <g transform="translate(516, 346) scale(1.66667)" fill="none" stroke="#F7FAFC" stroke-width="2">
    <path d="M7 10h3v-3l-3.5 -3.5a6 6 0 0 1 8 8l6 6a2 2 0 0 1 -3 3l-6 -6a6 6 0 0 1 -8 -8l3.5 3.5" />
  </g>
    <text x="576" y="374" font-size="24" font-weight="700" fill="#F7FAFC">Developer product</text>
    <text x="516" y="412" font-size="18" fill="#B9F4F7">CONTROL SURFACE</text>
    <text x="516" y="458" font-size="18" fill="#A9B7D5">BUYER</text>
    <text x="600" y="458" font-size="24" font-weight="700" fill="#F7FAFC">Developer</text>

    <line x1="790" y1="364" x2="870" y2="276" stroke="#00C2D7" stroke-width="4" />
    <polygon points="870,276 854,280 864,292" fill="#00C2D7" />

    <rect x="870" y="210" width="300" height="230" rx="10" fill="#E8EEF7" stroke="#00C2D7" stroke-width="4" />

  <g transform="translate(896, 240) scale(1.83333)" fill="none" stroke="#3448A8" stroke-width="2">
    <path d="M6.657 18c-2.572 0 -4.657 -2.007 -4.657 -4.483c0 -2.475 2.085 -4.482 4.657 -4.482c.393 -1.762 1.794 -3.2 3.675 -3.773c1.88 -.572 3.956 -.193 5.444 1c1.488 1.19 2.162 3.007 1.77 4.769h.99c1.913 0 3.464 1.56 3.464 3.486c0 1.927 -1.551 3.487 -3.465 3.487h-11.878" />
  </g>
    <text font-weight="700" font-size="22" fill="#101B35" x="950" y="258">
      <tspan>Enterprise</tspan>
      </text><text font-weight="700" font-size="22" fill="#101B35" x="950" y="282"><tspan>platform</tspan>
    </text><text x="896" y="314" font-size="18" fill="#3448A8">GOVERNED PRODUCT</text>
    <text x="896" y="366" font-size="18" fill="#475467">BUYER</text>
    <text x="980" y="366" font-size="24" font-weight="700" fill="#101B35">Enterprise</text>
  </g>

  <g id="market-thesis" data-pptx-bounds="128 586 1024 42">
    <text x="640" y="616" text-anchor="middle" font-family="Cascadia Mono, Consolas, monospace" font-size="24" font-weight="700" fill="#F7FAFC">
      DEFINE THE COMPETITIVE LAYER BEFORE COMPARING PRODUCTS
    </text>
  </g>

  <g id="footer" data-pptx-bounds="64 652 1152 40">
    <text x="64" y="676" font-family="Cascadia Mono, Consolas, monospace" font-size="18" fill="#A9B7D5">K-019 · K-027  |  RUNTIME → PRODUCT → PLATFORM</text>
    <text x="1216" y="676" text-anchor="end" font-family="Cascadia Mono, Consolas, monospace" font-size="18" fill="#00C2D7">P20 / 24</text>
  </g>
</svg>