<svg xmlns="http://www.w3.org/2000/svg" viewBox="0 0 1280 720"
     data-pptx-page-role="content"
     font-family="Aptos, Arial, sans-serif">
  <defs>
    <marker id="arrow-cyan" viewBox="0 0 10 10" refX="9" refY="5"
            markerWidth="8" markerHeight="8" orient="auto">
      <polygon points="0,0 10,5 0,10" fill="#00C2D7"/>
    </marker>
  </defs>
  <rect id="background" data-pptx-role="background"
        x="0" y="0" width="1280" height="720" fill="#F7FAFC"/>
  <path id="engineering-grid" data-pptx-role="decoration"
        d="M160 0V720 M320 0V720 M480 0V720 M640 0V720 M800 0V720 M960 0V720 M1120 0V720 M0 120H1280 M0 240H1280 M0 360H1280 M0 480H1280 M0 600H1280"
        fill="none" stroke="#3448A8" stroke-width="1" stroke-opacity="0.07"/>

  <g id="header" data-pptx-bounds="64 42 1152 100">
    <text x="64" y="66" font-family="Cascadia Mono, Consolas, monospace"
          font-size="18" fill="#3448A8" letter-spacing="1">WHY A HARNESS / CONTROL RESPONSIBILITY</text>
    <text x="64" y="122" font-family="Aptos Display, Arial, sans-serif"
          font-size="42" font-weight="700" fill="#101B35">
      The hard part is not thinking—it is finishing safely
    </text>
  </g>

  <g id="causal-claim" data-pptx-bounds="64 172 420 426">
    <text x="64" y="226" font-family="Aptos Display, Arial, sans-serif"
          font-size="32" font-weight="700" fill="#101B35">
      <tspan x="64" dy="0">The model proposes.</tspan>
      <tspan x="64" dy="48">Harness turns it into</tspan>
      <tspan x="64" dy="48" fill="#3448A8">controlled, recorded,</tspan>
      <tspan x="64" dy="48">recoverable action.</tspan>
    </text>
    <line x1="64" y1="440" x2="404" y2="440" stroke="#00C2D7" stroke-width="4"/>
    <text x="64" y="486" font-family="Cascadia Mono, Consolas, monospace"
          font-size="18" font-weight="700" fill="#C2415B">THINK ≠ ACT</text>
    <text x="64" y="488" font-size="22" fill="#475467">
      <tspan x="64" dy="0">Side effects live in files.</tspan>
      <tspan x="64" dy="34">They reach processes and networks.</tspan>
      <tspan x="64" dy="34">They reach business systems.</tspan>
    </text>
  </g>

  <g id="control-chain" data-pptx-bounds="500 164 716 450">
    <line x1="672" y1="282" x2="756" y2="282" stroke="#00C2D7" stroke-width="4"
          marker-end="url(#arrow-cyan)"/>
    <line x1="1018" y1="282" x2="1082" y2="282" stroke="#00C2D7" stroke-width="4"
          marker-end="url(#arrow-cyan)"/>

    <rect x="510" y="222" width="162" height="120" rx="8"
          fill="#E8EEF7" stroke="#3448A8" stroke-width="2"/>
    <use data-icon="tabler-outline/cpu" x="566" y="238" width="48" height="48"
         fill="#3448A8" stroke-width="2"/>
    <text x="591" y="318" text-anchor="middle" font-size="24" font-weight="700"
          fill="#101B35">Model</text>

    <rect x="756" y="174" width="262" height="304" rx="10"
          fill="#101B35" stroke="#00C2D7" stroke-width="3"/>
    <text x="887" y="214" text-anchor="middle" font-size="24" font-weight="700"
          fill="#F7FAFC">HARNESS CONTROL PLANE</text>
    <rect x="782" y="244" width="94" height="76" rx="6" fill="#1C2A4A" stroke="#3448A8"/>
    <rect x="896" y="244" width="94" height="76" rx="6" fill="#1C2A4A" stroke="#3448A8"/>
    <rect x="782" y="342" width="94" height="76" rx="6" fill="#1C2A4A" stroke="#3448A8"/>
    <rect x="896" y="342" width="94" height="76" rx="6" fill="#1C2A4A" stroke="#00C2D7" stroke-width="2"/>
    <text x="829" y="290" text-anchor="middle" font-size="18" fill="#F7FAFC">Context</text>
    <text x="943" y="290" text-anchor="middle" font-size="18" fill="#F7FAFC">Policy</text>
    <text x="829" y="388" text-anchor="middle" font-size="18" fill="#F7FAFC">Tool</text>
    <text x="943" y="388" text-anchor="middle" font-size="18" fill="#B9F4F7">Session</text>

    <rect x="1082" y="222" width="134" height="120" rx="8"
          fill="#E8EEF7" stroke="#3448A8" stroke-width="2"/>
    <use data-icon="tabler-outline/server" x="1125" y="238" width="48" height="48"
         fill="#3448A8" stroke-width="2"/>
    <text x="1149" y="318" text-anchor="middle" font-size="24" font-weight="700"
          fill="#101B35">World</text>

    <path d="M1149 360V522H943V430" fill="none" stroke="#00C2D7"
          stroke-width="3" stroke-dasharray="6 3" marker-end="url(#arrow-cyan)"/>
    <text x="1044" y="554" text-anchor="middle" font-size="18" fill="#475467">
      visible result → recoverable evidence
    </text>
    <text x="887" y="510" text-anchor="middle"
          font-family="Cascadia Mono, Consolas, monospace"
          font-size="18" fill="#3448A8">ALL EXECUTION PASSES THROUGH HARNESS</text>
  </g>

  <g id="footer" data-pptx-bounds="64 652 1152 40">
    <text x="64" y="676" font-family="Cascadia Mono, Consolas, monospace"
          font-size="18" fill="#475467">K-001 · K-002 · K-008  |  DEEPSEEK HARNESS v0.1.0-rc.7</text>
    <text x="1216" y="676" text-anchor="end"
          font-family="Cascadia Mono, Consolas, monospace"
          font-size="18" fill="#3448A8">P02 / 24</text>
  </g>
</svg>
